<svg width="83" height="82" viewBox="0 0 83 82" fill="none" xmlns="http://www.w3.org/2000/svg">
<path d="M41.5 2C63.0391 2 80.5 19.4609 80.5 41H82.5C82.5 18.3563 64.1437 0 41.5 0V2ZM2.5 41C2.5 19.4609 19.9609 2 41.5 2V0C18.8563 0 0.5 18.3563 0.5 41H2.5ZM41.5 80C19.9609 80 2.5 62.5391 2.5 41H0.5C0.5 63.6437 18.8563 82 41.5 82V80ZM80.5 41C80.5 62.5391 63.0391 80 41.5 80V82C64.1437 82 82.5 63.6437 82.5 41H80.5ZM41.4999 23.7037C31.9474 23.7037 24.2036 31.4475 24.2036 41H26.2036C26.2036 32.5521 33.052 25.7037 41.4999 25.7037V23.7037ZM58.7962 41C58.7962 31.4475 51.0524 23.7037 41.4999 23.7037V25.7037C49.9478 25.7037 56.7962 32.5521 56.7962 41H58.7962ZM41.4999 58.2963C51.0524 58.2963 58.7962 50.5524 58.7962 41H56.7962C56.7962 49.4479 49.9478 56.2963 41.4999 56.2963V58.2963ZM24.2036 41C24.2036 50.5524 31.9474 58.2963 41.4999 58.2963V56.2963C33.052 56.2963 26.2036 49.4479 26.2036 41H24.2036Z" fill="#FFAA00"/>
</svg>
