<svg width="20" height="21" viewBox="0 0 20 21" fill="none" xmlns="http://www.w3.org/2000/svg">
<path fill-rule="evenodd" clip-rule="evenodd" d="M19.7231 3.55169L16.6939 0.522518C16.3247 0.153301 15.7261 0.153301 15.3569 0.522518L10 5.87938L4.64317 0.522518C4.27395 0.153301 3.67533 0.153301 3.30611 0.522518L0.276943 3.55169C-0.0922738 3.92091 -0.0922738 4.51953 0.276943 4.88874L5.63381 10.2456L0.276943 15.6025C-0.0922738 15.9717 -0.0922738 16.5703 0.276943 16.9395L3.30611 19.9687C3.67533 20.3379 4.27395 20.3379 4.64317 19.9687L10 14.6118L15.3569 19.9687C15.7261 20.3379 16.3247 20.3379 16.6939 19.9687L19.7231 16.9395C20.0923 16.5703 20.0923 15.9717 19.7231 15.6025L14.3663 10.2456L19.7231 4.88874C20.0923 4.51953 20.0923 3.92091 19.7231 3.55169Z" fill="#D6ECFF"/>
</svg>
