<svg width="83" height="82" viewBox="0 0 83 82" fill="none" xmlns="http://www.w3.org/2000/svg">
<path d="M80.4786 62.747L81.1863 62.0405L80.4786 62.747ZM80.4786 66.9932L81.1863 67.6997L80.4786 66.9932ZM58.7684 41.0003L58.0607 40.2937L57.3553 41.0003L58.0607 41.7068L58.7684 41.0003ZM80.4793 19.2528L81.187 19.9594V19.9594L80.4793 19.2528ZM80.4793 15.0066L81.187 14.3001V14.3001L80.4793 15.0066ZM67.4501 1.9556L66.7424 2.66211V2.66212L67.4501 1.9556ZM63.211 1.9556L62.5033 1.24909V1.24909L63.211 1.9556ZM41.5001 23.703L40.7924 24.4095L41.5001 25.1184L42.2078 24.4095L41.5001 23.703ZM19.7892 1.95559L19.0815 2.6621V2.6621L19.7892 1.95559ZM15.5501 1.95559L16.2578 2.6621L15.5501 1.95559ZM2.52101 15.0066L1.81331 14.3001H1.81331L2.52101 15.0066ZM2.52101 19.2528L3.22871 18.5463H3.22871L2.52101 19.2528ZM24.2319 41.0003L24.9396 41.7068L25.645 41.0003L24.9396 40.2937L24.2319 41.0003ZM2.52164 62.747L1.81394 62.0405H1.81394L2.52164 62.747ZM2.52164 66.9932L3.22934 66.2867H3.22934L2.52164 66.9932ZM15.5508 80.0443L14.8431 80.7508H14.8431L15.5508 80.0443ZM19.7899 80.0443L20.4976 80.7508H20.4976L19.7899 80.0443ZM41.5001 58.2975L42.2078 57.591L41.5001 56.8821L40.7924 57.591L41.5001 58.2975ZM63.2104 80.0443L63.9181 79.3378H63.9181L63.2104 80.0443ZM67.4495 80.0443L66.7418 79.3378L67.4495 80.0443ZM79.7709 63.4535C80.5518 64.2357 80.5518 65.5046 79.7709 66.2867L81.1863 67.6997C82.7467 66.1368 82.7467 63.6035 81.1863 62.0405L79.7709 63.4535ZM58.0607 41.7068L79.7709 63.4535L81.1863 62.0405L59.4761 40.2937L58.0607 41.7068ZM79.7716 18.5463L58.0607 40.2937L59.4761 41.7068L81.187 19.9594L79.7716 18.5463ZM79.7716 15.7132C80.5524 16.4953 80.5524 17.7642 79.7716 18.5463L81.187 19.9594C82.7473 18.3964 82.7473 15.8631 81.187 14.3001L79.7716 15.7132ZM66.7424 2.66212L79.7716 15.7132L81.187 14.3001L68.1578 1.24909L66.7424 2.66212ZM63.9187 2.66212C64.6987 1.88087 65.9625 1.88088 66.7424 2.66211L68.1578 1.24909C66.5966 -0.314785 64.0646 -0.314781 62.5033 1.24909L63.9187 2.66212ZM42.2078 24.4095L63.9187 2.66212L62.5033 1.24909L40.7924 22.9965L42.2078 24.4095ZM19.0815 2.6621L40.7924 24.4095L42.2078 22.9965L20.4969 1.24908L19.0815 2.6621ZM16.2578 2.6621C17.0378 1.88086 18.3016 1.88086 19.0815 2.6621L20.4969 1.24908C18.9357 -0.314798 16.4037 -0.314795 14.8424 1.24908L16.2578 2.6621ZM3.22871 15.7131L16.2578 2.6621L14.8424 1.24908L1.81331 14.3001L3.22871 15.7131ZM3.22871 18.5463C2.44785 17.7642 2.44785 16.4953 3.22871 15.7131L1.81331 14.3001C0.252985 15.8631 0.252986 18.3964 1.81331 19.9593L3.22871 18.5463ZM24.9396 40.2937L3.22871 18.5463L1.81331 19.9593L23.5242 41.7068L24.9396 40.2937ZM3.22934 63.4536L24.9396 41.7068L23.5242 40.2937L1.81394 62.0405L3.22934 63.4536ZM3.22934 66.2867C2.44849 65.5046 2.44849 64.2357 3.22934 63.4536L1.81394 62.0405C0.25362 63.6035 0.25362 66.1368 1.81394 67.6998L3.22934 66.2867ZM16.2585 79.3378L3.22934 66.2867L1.81394 67.6998L14.8431 80.7508L16.2585 79.3378ZM19.0822 79.3378C18.3022 80.119 17.0384 80.119 16.2585 79.3378L14.8431 80.7508C16.4043 82.3147 18.9363 82.3147 20.4976 80.7508L19.0822 79.3378ZM40.7924 57.591L19.0822 79.3378L20.4976 80.7508L42.2078 59.004L40.7924 57.591ZM63.9181 79.3378L42.2078 57.591L40.7924 59.004L62.5027 80.7508L63.9181 79.3378ZM66.7418 79.3378C65.9619 80.119 64.698 80.119 63.9181 79.3378L62.5027 80.7508C64.064 82.3147 66.5959 82.3147 68.1572 80.7508L66.7418 79.3378ZM79.7709 66.2867L66.7418 79.3378L68.1572 80.7508L81.1863 67.6997L79.7709 66.2867Z" fill="#008AFF"/>
</svg>
